<svg xmlns="http://www.w3.org/2000/svg" viewBox="0 0 720 330" width="720" height="330" font-family="-apple-system,BlinkMacSystemFont,'Segoe UI',Helvetica,Arial,sans-serif" role="img" aria-label="Redaction gate results"><rect width="720" height="330" fill="#faf7f2"/><text x="24" y="26" font-size="16" fill="#1a1714" text-anchor="start" font-weight="640">Redaction gate: identifiers vs facts</text><text x="24" y="44" font-size="11.5" fill="#6b625a" text-anchor="start" font-weight="400">a surviving identifier ties the document to a person, so it fails; a surviving fact is policy-dependent</text><text x="210" y="80" font-size="10.5" fill="#6b625a" text-anchor="start" font-weight="620">of 10 direct identifiers</text><text x="460" y="80" font-size="10.5" fill="#6b625a" text-anchor="start" font-weight="620">of 4 facts about a person</text><text x="196" y="114" font-size="12" fill="#1a1714" text-anchor="end" font-weight="400">qwen3.5:4b</text><rect x="210" y="100" width="13" height="22" rx="2" fill="#2f6f4f" fill-opacity="0.18" stroke="#ddd5cb" stroke-width="0.5"/><rect x="227" y="100" width="13" height="22" rx="2" fill="#2f6f4f" fill-opacity="0.18" stroke="#ddd5cb" stroke-width="0.5"/><rect x="244" y="100" width="13" height="22" rx="2" fill="#2f6f4f" fill-opacity="0.18" stroke="#ddd5cb" stroke-width="0.5"/><rect x="261" y="100" width="13" height="22" rx="2" fill="#2f6f4f" fill-opacity="0.18" stroke="#ddd5cb" stroke-width="0.5"/><rect x="278" y="100" width="13" height="22" rx="2" fill="#2f6f4f" fill-opacity="0.18" stroke="#ddd5cb" stroke-width="0.5"/><rect x="295" y="100" width="13" height="22" rx="2" fill="#2f6f4f" fill-opacity="0.18" stroke="#ddd5cb" stroke-width="0.5"/><rect x="312" y="100" width="13" height="22" rx="2" fill="#2f6f4f" fill-opacity="0.18" stroke="#ddd5cb" stroke-width="0.5"/><rect x="329" y="100" width="13" height="22" rx="2" fill="#2f6f4f" fill-opacity="0.18" stroke="#ddd5cb" stroke-width="0.5"/><rect x="346" y="100" width="13" height="22" rx="2" fill="#2f6f4f" fill-opacity="0.18" stroke="#ddd5cb" stroke-width="0.5"/><rect x="363" y="100" width="13" height="22" rx="2" fill="#2f6f4f" fill-opacity="0.18" stroke="#ddd5cb" stroke-width="0.5"/><text x="388" y="116" font-size="11" fill="#2f6f4f" text-anchor="start" font-weight="620">0 survived</text><rect x="460" y="100" width="13" height="22" rx="2" fill="#a86a1f" fill-opacity="0.9" stroke="#ddd5cb" stroke-width="0.5"/><rect x="477" y="100" width="13" height="22" rx="2" fill="#a86a1f" fill-opacity="0.9" stroke="#ddd5cb" stroke-width="0.5"/><rect x="494" y="100" width="13" height="22" rx="2" fill="#2f6f4f" fill-opacity="0.18" stroke="#ddd5cb" stroke-width="0.5"/><rect x="511" y="100" width="13" height="22" rx="2" fill="#2f6f4f" fill-opacity="0.18" stroke="#ddd5cb" stroke-width="0.5"/><text x="536" y="116" font-size="11" fill="#a86a1f" text-anchor="start" font-weight="620">2 survived</text><text x="196" y="154" font-size="12" fill="#1a1714" text-anchor="end" font-weight="400">qwen3.5:9b</text><rect x="210" y="140" width="13" height="22" rx="2" fill="#2f6f4f" fill-opacity="0.18" stroke="#ddd5cb" stroke-width="0.5"/><rect x="227" y="140" width="13" height="22" rx="2" fill="#2f6f4f" fill-opacity="0.18" stroke="#ddd5cb" stroke-width="0.5"/><rect x="244" y="140" width="13" height="22" rx="2" fill="#2f6f4f" fill-opacity="0.18" stroke="#ddd5cb" stroke-width="0.5"/><rect x="261" y="140" width="13" height="22" rx="2" fill="#2f6f4f" fill-opacity="0.18" stroke="#ddd5cb" stroke-width="0.5"/><rect x="278" y="140" width="13" height="22" rx="2" fill="#2f6f4f" fill-opacity="0.18" stroke="#ddd5cb" stroke-width="0.5"/><rect x="295" y="140" width="13" height="22" rx="2" fill="#2f6f4f" fill-opacity="0.18" stroke="#ddd5cb" stroke-width="0.5"/><rect x="312" y="140" width="13" height="22" rx="2" fill="#2f6f4f" fill-opacity="0.18" stroke="#ddd5cb" stroke-width="0.5"/><rect x="329" y="140" width="13" height="22" rx="2" fill="#2f6f4f" fill-opacity="0.18" stroke="#ddd5cb" stroke-width="0.5"/><rect x="346" y="140" width="13" height="22" rx="2" fill="#2f6f4f" fill-opacity="0.18" stroke="#ddd5cb" stroke-width="0.5"/><rect x="363" y="140" width="13" height="22" rx="2" fill="#2f6f4f" fill-opacity="0.18" stroke="#ddd5cb" stroke-width="0.5"/><text x="388" y="156" font-size="11" fill="#2f6f4f" text-anchor="start" font-weight="620">0 survived</text><rect x="460" y="140" width="13" height="22" rx="2" fill="#a86a1f" fill-opacity="0.9" stroke="#ddd5cb" stroke-width="0.5"/><rect x="477" y="140" width="13" height="22" rx="2" fill="#a86a1f" fill-opacity="0.9" stroke="#ddd5cb" stroke-width="0.5"/><rect x="494" y="140" width="13" height="22" rx="2" fill="#a86a1f" fill-opacity="0.9" stroke="#ddd5cb" stroke-width="0.5"/><rect x="511" y="140" width="13" height="22" rx="2" fill="#2f6f4f" fill-opacity="0.18" stroke="#ddd5cb" stroke-width="0.5"/><text x="536" y="156" font-size="11" fill="#a86a1f" text-anchor="start" font-weight="620">3 survived</text><text x="196" y="194" font-size="12" fill="#1a1714" text-anchor="end" font-weight="400">gemma4:12b</text><rect x="210" y="180" width="13" height="22" rx="2" fill="#2f6f4f" fill-opacity="0.18" stroke="#ddd5cb" stroke-width="0.5"/><rect x="227" y="180" width="13" height="22" rx="2" fill="#2f6f4f" fill-opacity="0.18" stroke="#ddd5cb" stroke-width="0.5"/><rect x="244" y="180" width="13" height="22" rx="2" fill="#2f6f4f" fill-opacity="0.18" stroke="#ddd5cb" stroke-width="0.5"/><rect x="261" y="180" width="13" height="22" rx="2" fill="#2f6f4f" fill-opacity="0.18" stroke="#ddd5cb" stroke-width="0.5"/><rect x="278" y="180" width="13" height="22" rx="2" fill="#2f6f4f" fill-opacity="0.18" stroke="#ddd5cb" stroke-width="0.5"/><rect x="295" y="180" width="13" height="22" rx="2" fill="#2f6f4f" fill-opacity="0.18" stroke="#ddd5cb" stroke-width="0.5"/><rect x="312" y="180" width="13" height="22" rx="2" fill="#2f6f4f" fill-opacity="0.18" stroke="#ddd5cb" stroke-width="0.5"/><rect x="329" y="180" width="13" height="22" rx="2" fill="#2f6f4f" fill-opacity="0.18" stroke="#ddd5cb" stroke-width="0.5"/><rect x="346" y="180" width="13" height="22" rx="2" fill="#2f6f4f" fill-opacity="0.18" stroke="#ddd5cb" stroke-width="0.5"/><rect x="363" y="180" width="13" height="22" rx="2" fill="#2f6f4f" fill-opacity="0.18" stroke="#ddd5cb" stroke-width="0.5"/><text x="388" y="196" font-size="11" fill="#2f6f4f" text-anchor="start" font-weight="620">0 survived</text><rect x="460" y="180" width="13" height="22" rx="2" fill="#a86a1f" fill-opacity="0.9" stroke="#ddd5cb" stroke-width="0.5"/><rect x="477" y="180" width="13" height="22" rx="2" fill="#2f6f4f" fill-opacity="0.18" stroke="#ddd5cb" stroke-width="0.5"/><rect x="494" y="180" width="13" height="22" rx="2" fill="#2f6f4f" fill-opacity="0.18" stroke="#ddd5cb" stroke-width="0.5"/><rect x="511" y="180" width="13" height="22" rx="2" fill="#2f6f4f" fill-opacity="0.18" stroke="#ddd5cb" stroke-width="0.5"/><text x="536" y="196" font-size="11" fill="#a86a1f" text-anchor="start" font-weight="620">1 survived</text><text x="196" y="234" font-size="12" fill="#1a1714" text-anchor="end" font-weight="400">qwen3.8:27b</text><rect x="210" y="220" width="13" height="22" rx="2" fill="#2f6f4f" fill-opacity="0.18" stroke="#ddd5cb" stroke-width="0.5"/><rect x="227" y="220" width="13" height="22" rx="2" fill="#2f6f4f" fill-opacity="0.18" stroke="#ddd5cb" stroke-width="0.5"/><rect x="244" y="220" width="13" height="22" rx="2" fill="#2f6f4f" fill-opacity="0.18" stroke="#ddd5cb" stroke-width="0.5"/><rect x="261" y="220" width="13" height="22" rx="2" fill="#2f6f4f" fill-opacity="0.18" stroke="#ddd5cb" stroke-width="0.5"/><rect x="278" y="220" width="13" height="22" rx="2" fill="#2f6f4f" fill-opacity="0.18" stroke="#ddd5cb" stroke-width="0.5"/><rect x="295" y="220" width="13" height="22" rx="2" fill="#2f6f4f" fill-opacity="0.18" stroke="#ddd5cb" stroke-width="0.5"/><rect x="312" y="220" width="13" height="22" rx="2" fill="#2f6f4f" fill-opacity="0.18" stroke="#ddd5cb" stroke-width="0.5"/><rect x="329" y="220" width="13" height="22" rx="2" fill="#2f6f4f" fill-opacity="0.18" stroke="#ddd5cb" stroke-width="0.5"/><rect x="346" y="220" width="13" height="22" rx="2" fill="#2f6f4f" fill-opacity="0.18" stroke="#ddd5cb" stroke-width="0.5"/><rect x="363" y="220" width="13" height="22" rx="2" fill="#2f6f4f" fill-opacity="0.18" stroke="#ddd5cb" stroke-width="0.5"/><text x="388" y="236" font-size="11" fill="#2f6f4f" text-anchor="start" font-weight="620">0 survived</text><rect x="460" y="220" width="13" height="22" rx="2" fill="#a86a1f" fill-opacity="0.9" stroke="#ddd5cb" stroke-width="0.5"/><rect x="477" y="220" width="13" height="22" rx="2" fill="#2f6f4f" fill-opacity="0.18" stroke="#ddd5cb" stroke-width="0.5"/><rect x="494" y="220" width="13" height="22" rx="2" fill="#2f6f4f" fill-opacity="0.18" stroke="#ddd5cb" stroke-width="0.5"/><rect x="511" y="220" width="13" height="22" rx="2" fill="#2f6f4f" fill-opacity="0.18" stroke="#ddd5cb" stroke-width="0.5"/><text x="536" y="236" font-size="11" fill="#a86a1f" text-anchor="start" font-weight="620">1 survived</text><text x="196" y="274" font-size="12" fill="#1a1714" text-anchor="end" font-weight="400">muse-glimmer:30b</text><rect x="210" y="260" width="13" height="22" rx="2" fill="#2f6f4f" fill-opacity="0.18" stroke="#ddd5cb" stroke-width="0.5"/><rect x="227" y="260" width="13" height="22" rx="2" fill="#2f6f4f" fill-opacity="0.18" stroke="#ddd5cb" stroke-width="0.5"/><rect x="244" y="260" width="13" height="22" rx="2" fill="#2f6f4f" fill-opacity="0.18" stroke="#ddd5cb" stroke-width="0.5"/><rect x="261" y="260" width="13" height="22" rx="2" fill="#2f6f4f" fill-opacity="0.18" stroke="#ddd5cb" stroke-width="0.5"/><rect x="278" y="260" width="13" height="22" rx="2" fill="#2f6f4f" fill-opacity="0.18" stroke="#ddd5cb" stroke-width="0.5"/><rect x="295" y="260" width="13" height="22" rx="2" fill="#2f6f4f" fill-opacity="0.18" stroke="#ddd5cb" stroke-width="0.5"/><rect x="312" y="260" width="13" height="22" rx="2" fill="#2f6f4f" fill-opacity="0.18" stroke="#ddd5cb" stroke-width="0.5"/><rect x="329" y="260" width="13" height="22" rx="2" fill="#2f6f4f" fill-opacity="0.18" stroke="#ddd5cb" stroke-width="0.5"/><rect x="346" y="260" width="13" height="22" rx="2" fill="#2f6f4f" fill-opacity="0.18" stroke="#ddd5cb" stroke-width="0.5"/><rect x="363" y="260" width="13" height="22" rx="2" fill="#2f6f4f" fill-opacity="0.18" stroke="#ddd5cb" stroke-width="0.5"/><text x="388" y="276" font-size="11" fill="#2f6f4f" text-anchor="start" font-weight="620">0 survived</text><rect x="460" y="260" width="13" height="22" rx="2" fill="#a86a1f" fill-opacity="0.9" stroke="#ddd5cb" stroke-width="0.5"/><rect x="477" y="260" width="13" height="22" rx="2" fill="#2f6f4f" fill-opacity="0.18" stroke="#ddd5cb" stroke-width="0.5"/><rect x="494" y="260" width="13" height="22" rx="2" fill="#2f6f4f" fill-opacity="0.18" stroke="#ddd5cb" stroke-width="0.5"/><rect x="511" y="260" width="13" height="22" rx="2" fill="#2f6f4f" fill-opacity="0.18" stroke="#ddd5cb" stroke-width="0.5"/><text x="536" y="276" font-size="11" fill="#a86a1f" text-anchor="start" font-weight="620">1 survived</text><text x="24" y="314" font-size="10.5" fill="#6b625a" text-anchor="start" font-weight="400">Filled = survived. Under a de-identification standard the identifier column is the pass criterion.</text></svg>
